<svg _ngcontent-ng-c3107090838="" xmlns="http://www.w3.org/2000/svg" width="21.001" height="21.001" viewBox="0 0 21.001 21.001" class="stepper__item__step__icon"><defs _ngcontent-ng-c3107090838=""><clipPath _ngcontent-ng-c3107090838="" id="iconDelivery"><path _ngcontent-ng-c3107090838="" d="M120.5,483a.5.5,0,0,1-.448-.724l3-6A.5.5,0,0,1,123.5,476h1.479l4.46,4.46a1.5,1.5,0,0,0,2.122,0L136.02,476H137.5a.5.5,0,0,1,.447.276l3,6a.5.5,0,0,1-.447.724Zm9.645-3.247-4.9-4.9a7.5,7.5,0,1,1,10.5.008l-4.894,4.9a.5.5,0,0,1-.707,0ZM127,469.5a3.5,3.5,0,1,0,3.5-3.5A3.5,3.5,0,0,0,127,469.5Zm1,0a2.5,2.5,0,1,1,2.5,2.5A2.5,2.5,0,0,1,128,469.5Z" fill="#12477a"></path></clipPath></defs><g _ngcontent-ng-c3107090838="" transform="translate(-120 -462)"><g _ngcontent-ng-c3107090838="" clip-path="url(#iconDelivery)"><rect _ngcontent-ng-c3107090838="" width="31.001" height="31" transform="translate(115 457)" fill="#12477a"></rect></g></g></svg>