<svg _ngcontent-ng-c3107090838="" xmlns="http://www.w3.org/2000/svg" width="20" height="20.25" viewBox="0 0 20 20.25" class="stepper__item__step__icon"><defs _ngcontent-ng-c3107090838=""><clipPath _ngcontent-ng-c3107090838="" id="iconCart"><path _ngcontent-ng-c3107090838="" fill="#12477a" d="M284.7,329a2.258,2.258,0,0,1,.128-.75h-2.753a2.248,2.248,0,1,1-3.825-.716,3.746,3.746,0,0,1-1.523-2.646l-.013-.113a3.5,3.5,0,0,1-2.239-2.966l-.3-3.454a.434.434,0,0,1-.011-.066l-.323-3.165-.181-1.5a1.249,1.249,0,0,0-1.242-1.122h-.671a.749.749,0,0,1,0-1.5h.671a2.746,2.746,0,0,1,2.732,2.469l.138,1.335H290.5a.5.5,0,0,1,.49.6l-1.328,6.78A3.5,3.5,0,0,1,286.23,325h-7.965a2.25,2.25,0,0,0,2.192,1.748h6.274c.037,0,.073,0,.055.005q.082-.005.165-.005A2.249,2.249,0,1,1,284.7,329Zm1.248,0a1,1,0,1,0,1-1A1,1,0,0,0,285.952,329Zm-6.993,0a1,1,0,1,0,1-1A1,1,0,0,0,278.959,329Z"></path></clipPath></defs><g _ngcontent-ng-c3107090838="" transform="translate(-271 -311)"><g _ngcontent-ng-c3107090838="" clip-path="url(#iconCart)"><rect _ngcontent-ng-c3107090838="" fill="#12477a" width="30" height="30.25" transform="translate(266 306)"></rect></g></g></svg>