<svg _ngcontent-ng-c3107090838="" xmlns="http://www.w3.org/2000/svg" width="21" height="21" viewBox="0 0 21 21" class="stepper__item__step__icon"><defs _ngcontent-ng-c3107090838=""><clipPath _ngcontent-ng-c3107090838="" id="iconPay"><path _ngcontent-ng-c3107090838="" d="M385,282V265h3v15.5a1.5,1.5,0,0,1-1.5,1.5Zm-3,0V265h2v17Zm-7.5,0a1.5,1.5,0,0,1-1.5-1.5V265h8v17Zm.5-7.5v4a.5.5,0,1,0,1,0v-4a.5.5,0,1,0-1,0Zm14-7.5v-2.5a.5.5,0,0,0-.5-.5h-16a.5.5,0,0,0-.5.5V267h-1.5a.5.5,0,0,1-.5-.5v-5a.5.5,0,0,1,.5-.5h20a.5.5,0,0,1,.5.5v5a.5.5,0,0,1-.5.5Z" fill="#12477a"></path></clipPath></defs><g _ngcontent-ng-c3107090838="" transform="translate(-370 -261)"><g _ngcontent-ng-c3107090838="" clip-path="url(#iconPay)"><rect _ngcontent-ng-c3107090838="" width="31" height="31" transform="translate(365 256)" fill="#12477a"></rect></g></g></svg>