<svg _ngcontent-ng-c3107090838="" xmlns="http://www.w3.org/2000/svg" width="19.338" height="21.021" viewBox="0 0 9.338 11.021" class="stepper__item__step__icon"><g _ngcontent-ng-c3107090838="" transform="translate(20423.801 12439.854)"><g _ngcontent-ng-c3107090838="" transform="translate(-20471.342 -12446.517)"><g _ngcontent-ng-c3107090838="" transform="translate(35.982)"><g _ngcontent-ng-c3107090838="" transform="translate(0)"><path _ngcontent-ng-c3107090838="" d="M113.171,0a2.579,2.579,0,1,0,2.579,2.579A2.578,2.578,0,0,0,113.171,0Z" transform="translate(-96.943 6.662)" fill="#12477a"></path></g></g><g _ngcontent-ng-c3107090838="" transform="translate(31.744 11.062)"><g _ngcontent-ng-c3107090838=""><path _ngcontent-ng-c3107090838="" d="M37.417,205.824H35.409a3.667,3.667,0,0,0-3.665,3.665v1.493a.4.4,0,0,0,.407.407h8.524a.4.4,0,0,0,.407-.407v-1.493A3.667,3.667,0,0,0,37.417,205.824Z" transform="translate(-15.947 -204.767)" fill="#12477a"></path></g></g></g></g></svg>